<?xml version="1.0" encoding="utf-8"?>
<!-- Generator: Adobe Illustrator 19.2.1, SVG Export Plug-In . SVG Version: 6.00 Build 0)  -->
<svg version="1.1" id="Layer_1" xmlns="http://www.w3.org/2000/svg" xmlns:xlink="http://www.w3.org/1999/xlink" x="0px" y="0px"
	 viewBox="0 0 288 282" style="enable-background:new 0 0 288 282;" xml:space="preserve">
<style type="text/css">
	.st0{fill:#512C1D;}
	.st1{fill:#FFFFFF;}
	.st2{fill:#C8B783;}
	.st3{fill:#849794;}
	.st4{fill:#986036;}
	.st5{fill:#676636;}
	.st6{fill-rule:evenodd;clip-rule:evenodd;fill:#B44C5A;}
	.st7{fill-rule:evenodd;clip-rule:evenodd;fill:#676636;}
	.st8{fill:url(#SVGID_1_);}
</style>
<polygon class="st0" points="14.6,195.7 52.4,205.1 48.6,180.1 "/>
<polygon class="st0" points="275.2,195.7 239.8,204 242.1,180.4 "/>
<path class="st1" d="M51.5,176.7c0,52.3,42.5,94.8,94.8,94.8c52.3,0,94.8-42.5,94.8-94.8V10.2H51.5V176.7z"/>
<path class="st0" d="M45,3.7v173C45,232.6,90.4,278,146.3,278c55.8,0,101.3-45.4,101.3-101.3V3.7H45z M241,176.7
	c0,52.3-42.5,94.8-94.8,94.8c-52.3,0-94.8-42.5-94.8-94.8V10.2H241V176.7z"/>
<rect x="56.4" y="15.4" class="st2" width="179" height="117.6"/>
<path class="st3" d="M235.5,176.7c0,49.3-39.9,89.2-89.2,89.2C97,265.9,57,226,57,176.7v-46.1h178.5V176.7z"/>
<path class="st0" d="M146.3,267.6c-50.1,0-90.9-40.8-90.9-90.9V14.5h181.7v162.2C237.1,226.8,196.4,267.6,146.3,267.6z M58.7,17.8
	v158.9c0,48.3,39.3,87.6,87.6,87.6c48.3,0,87.6-39.3,87.6-87.6V17.8H58.7z"/>
<g id="_x30_gftLj_1_">
	<g>
		<path class="st0" d="M127.2,244.8c0.3,0,0.6,0,0.9,0c1.1,0.6,1.8,1.4,2.4,2.4c0.3,0.4,0.5,0.7,0.7,1.1c0.6,1.2,1.7,1.8,3,2.1
			c2.2,0.4,4.4,0.5,6.6,0.6c2,0.1,3.6,0.9,4.7,2.7c0.3,0.5,0.6,1.1,0.9,1.6c0.2,0.3,0.4,0.6,0.7,0.7c1.7,0.8,3.7-0.4,4-2.2
			c0.1-0.5,0-1.1,0.1-1.6c0.1-0.9,0.5-1.1,1.3-0.6c0.9,0.5,1.6,1.1,2.3,1.7c1,0.9,2.2,1.3,3.6,1.1c4.5-0.6,8.3-2.6,11.3-5.9
			c0.6-0.7,0.6-0.7,1.3-0.1c0.4,0.3,0.8,0.6,1.2,0.9c1.2,0.9,2.4,1.8,3.9,2.1c1.2,0.2,2.4,0.4,3.7,0.4c4.5,0,8.9-0.7,13.3-1.9
			c1.1-0.3,1.1-0.3,1.7,0.8c0.1,0.3,0.2,0.5-0.2,0.6c-0.3,0.2-0.7,0.4-1,0.6c-11.5,5.8-21.6,11.1-34.5,12.6c-1,0.1-2,0.1-3,0.4
			c-3.9,0.1-9.7,0.4-13.6,0.6c-0.2-0.1-0.5-0.1-0.8-0.1c-2.4,0-6.4-1-8.8-1.3c-7.5-0.8-13.4-2.9-20.5-5.2c-3.3-1.1-6.6-2.3-9.6-3.9
			c-0.5-0.3-1.1-0.6-1.4-1.1c0-0.3,0-0.6,0-0.9c0.6-0.9,1.5-1.3,2.5-1.5c1.8-0.4,3.6-0.6,5.4-0.5c1.7,0.1,1.9-0.1,2.6-1.6
			c0.5-1.1,1.1-2.2,1.9-3.2c0.5-0.6,1-0.6,1.5,0c0.4,0.6,0.8,1.2,1.2,1.7c0.8,1.1,1.9,1.9,3.2,2.3c1.5,0.4,2.8,0.1,3.8-1.1
			c0.5-0.7,1-1.4,1.6-2.1C125.6,246.2,126.2,245.4,127.2,244.8z"/>
	</g>
</g>
<path class="st0" d="M228.2,76.5c-1.4-6.7-3.3-17.3-3.3-17.3s-12.5-10.7-15.7-11.5c-1.8-0.5-4,0.4-5.6,1.2c-1.5,0.5-2.4,0.9-3.3,0.9
	l-1.4-0.3c-0.5-0.2-1-0.4-1.7-0.7c-2.6-1.3-2.3-3.5-2.2-4c0.1-0.3,0.2-0.5,0.2-0.7c0.2-2.1-3.2-1.8-4.1-4.8c-0.9-3.1,0.3-4.8-3-5.8
	c-3.3-1-4.2-0.7-4.6-3c-0.2-1.3-0.9-1.9-1.6-2.2c-0.8-0.7-2.1-0.3-3.5-0.5c-0.8-0.5-1.7-0.9-2.5-1.3c-2.1-2-2.1-3.9-5.3-3
	c-3.3,0.9-3.9,1.7-5.5-0.1c-0.9-1-1.8-1.2-2.6-1c-0.2,0-0.4,0.1-0.6,0.2c-0.3,0.1-0.5,0.3-0.7,0.5c-0.9,0.7-2,1.7-3.8,1.5
	c-3.2-0.3-4.3-2.1-6.5,0.7c-0.8,1-1.3,1.8-1.8,2.3c-0.6,0.5-1.4,0.9-2.4,0.9c-0.1,0-0.2,0-0.3-0.1c-0.4-0.1-0.8-0.1-1.1-0.1
	c-2.6-0.5-3.7-1.7-5.6,0.8c-2.2,2.7-2.2,3.7-4.5,3.2c-2.3-0.5-3.8,1.6-4,2.6c0,0.2,0,0.4,0,0.7c-9.6,4.5-21.3,11.3-43.4,14.7
	c0,0-9.7,1.2-14.1,9.1c-6.1,11-5.7,26.6-2.6,38.6c0,0,9.6-3.7,6.4-14.1c-3.3-10.4-3.3-15.5,1.7-22.7c0,0-4.6,7.9,1.9,17.4
	c6.3,9.2,3.9,15.1,0.4,18.3c0,0-2.3,1.3-2.1,4.4c0.2,3,0.4,3.7-0.3,8.7c-0.7,4.7-1.2,10.8,0.9,15.6h10.9c-1-2.5-3.8-10.8,2.3-14.4
	c7.2-4.2,17.7-8.9,21.6-16.6c0,0,4.7,5.5,4.4,11c0,0-0.5,5.9,2.2,7.4c2.7,1.5,7,3.4,8.1,12.7H143c-1.8-2.2-9.5-12.2-5.6-18.6
	c0,0,5.8,1.2,14.9,1.2l-0.3,0.1c0,0-1.5,5.8,1.8,10.3c2.3,3.2,2.2,5.8,2,7h12.8c-0.3-1.6-0.7-5.5,2.1-9.9c0.4-0.6,0.6-1.2,0.7-1.7
	c4.4,2.1,9.2,7.7,11.3,11.6h13.2c-1.7-2.2-9.3-12.2-9.4-19.9c0-0.1,0-0.1,0-0.2c0.1-5.8,5.3-5.4,5.3-5.4c3.8,0.7,4.6,2.4,3.8,7.2
	c-0.8,4.7,1.1,4.7,1.1,4.7c6.3,0.2,10.3-5.8,10.3-5.8s3.2-5.6,6.8-4.9c3.6,0.7,5.8-2.4,5.8-2.4S229.6,83.1,228.2,76.5z"/>
<path class="st4" d="M215.6,59.2c0,0-11.6-3.5-15.1,9.4c0,0-1,5.7,4.2,6.9c5.2,1.2,6.9-3.5,5.2-6.9
	C208.1,65.2,211.4,60.5,215.6,59.2z"/>
<path class="st0" d="M235.7,117.1c0,0-3.6,1.9-6,2.5c-2.4,0.6-6.2-0.6-6.2-0.6l-3.2,1.6l-5,2.8c-2-2.7-5.6-3.8-10.6-2.2
	c-4.9,1.6-16.4,1.6-21.3,0.5c-4.9-1.1-5.5-1.1-7.7,0c-2.2,1.1-15.9,1.1-15.9,1.1s-7.7,0-8.8-1.6c-1.1-1.6-2.7-2.7-6-1.1
	c-3.3,1.6-11.3-1.6-11.3-1.6c-2.9-3.8-1.2-3.4-3.6-2c-2.5,1.4-9.1,3.9-11.4,1.4c-2.3-2.5-3.2-3.6-3.4-0.8c-0.2,2.9-2.9,2.9-3.6,2.1
	c-0.8-0.8-1-4.4-5.1-4.4c-4.2,0-6.1,3.1-7.1,2.3c-1-0.8-3.8-5.5-5.5-2.7c-1.7,2.9-1.5,5.9-4.9,5.5c-3.4-0.4-4.8-7.9-5.6-4.1
	c-0.7,3,0,3.5-1,4.1l-1.1-0.5c0,0-3.3,2.1-5.8,0.4c-2.4-1.6-4.2-2.6-5.3-1c-1.1,1.6-3.8,2-6.8,1.4c-3-0.6-6.5-1.3-7.1-0.5
	c-0.6,0.8-0.3,10.3-0.3,10.3s1.8,1.5,5.4,1.5c3.6,0,15.1,0.5,21.9-1.3c6.8-1.8,14.9,0.9,16.8,2.4c1,0.8,8.3-1.3,15.7-2.3
	c7.4-1,12.2,2,15.7,2.6c3.5,0.6,17.9,0,16.6,0.8c3.8-2.4,15.5-5.6,24.1-0.4c-1.3-0.8,5.2-2.7,6.4-2.4s4.7-1.1,6.9-1.5
	c3.5-0.5,7.7-0.7,13.5,0c5.5,0.7,8.6,0.8,23,1.1c10.6,0.2,13.4-1.4,13.7-2.4C236,127.5,235.7,117.1,235.7,117.1z"/>
<g>
	<g>
		<path class="st4" d="M141.9,98.3c-1-0.1-7.2-0.8-11.8-3.1c-4.5-2.3-12-4.5-17-12.5c-5-8.1-13.1-7.3-11.6-5.5
			c1.5,1.8,7.1,6.6,8.1,9.1c1,2.5-2.5,5.8-4.3,7.1c-1.8,1.3-10.1,7.8-13.9,8.6c-3.8,0.8,0-5,1.8-11.6c1.8-6.6-2.3-10.4-3.3-12.4
			c-1-2-3.5-10.6-2.8-13.6c0.8-3,9.3-7.6,13.1-8.1c3.8-0.5,6.6-0.8,11.1-2.3c4.5-1.5,16.9-7.3,16.9-7.3l3.8-1.7l1.4-0.5
			c0.3-0.1,0.5-0.2,0.7-0.2c2.1-0.1,1.7,3.3,4.7,4.2c3,1,4.8,0,5.7,3.4c0.9,3.3,0.6,4.2,2.9,4.7c1.3,0.3,1.9,0.9,2.2,1.6
			c0.7,0.8,0.3,2.1,0.4,3.5c0.2,1.4,0.3,1.8,1.2,2.6c2,2.1,3.9,2.2,2.9,5.4c-1,3.3-1.8,3.9,0,5.5c1,0.9,1.1,1.9,1,2.6
			c0,0.2-0.1,0.4-0.2,0.6c-0.1,0.3-0.3,0.5-0.5,0.7c-0.7,0.9-1.7,2-1.6,3.8c0.2,3.2,2,4.4-0.8,6.5c-1.1,0.8-1.8,1.3-2.4,1.7
			c-0.5,0.6-0.9,1.4-1,2.4c0,0.1,0,0.2,0,0.3C148.7,93.7,148.8,98.9,141.9,98.3z"/>
	</g>
</g>
<polygon class="st0" points="4,124.3 14.3,196.1 275.2,196.1 285.5,124.3 "/>
<polygon class="st5" points="269.8,189.9 19.6,189.9 11.1,130.4 278.4,130.4 "/>
<g>
	<path class="st1" d="M32.7,137.9c1.1,0,2.1,0.2,2.9,0.5c0.8,0.3,1.5,0.7,2,1.3c0.5,0.6,0.9,1.2,1.1,2c0.2,0.8,0.4,1.7,0.4,2.7v17
		c0,2-0.5,3.6-1.5,4.8c-1,1.2-2.6,1.8-4.9,1.8h-8.6v-1.1c0-0.6,0.1-1,0.2-1.3c0.2-0.3,0.4-0.5,0.6-0.7c0.3-0.2,0.5-0.5,0.5-0.8
		v-22.1c0-0.2-0.1-0.4-0.2-0.6c-0.1-0.1-0.2-0.2-0.4-0.3c-0.3-0.1-0.5-0.3-0.6-0.6c-0.1-0.3-0.2-0.7-0.2-1.2v-1.2H32.7z M35.2,144.3
		c0-0.9-0.2-1.7-0.6-2.2c-0.4-0.6-1-0.8-1.9-0.8H30c-0.2,0-0.3,0.1-0.4,0.2c-0.1,0.1-0.1,0.2-0.1,0.4V164c0,0.1,0,0.3,0.1,0.4
		c0.1,0.1,0.2,0.2,0.3,0.2h2.9c0.9,0,1.5-0.3,1.9-0.8c0.4-0.6,0.6-1.3,0.6-2.2V144.3z"/>
	<path class="st1" d="M48.9,168.2c-1,0-1.9-0.1-2.8-0.4c-0.9-0.2-1.6-0.6-2.2-1.1c-0.6-0.5-1.1-1.1-1.5-1.9
		c-0.4-0.8-0.5-1.6-0.5-2.7v-18.6c0-1,0.2-1.9,0.5-2.7c0.4-0.8,0.9-1.4,1.5-1.9c0.6-0.5,1.4-0.9,2.2-1.1c0.9-0.2,1.8-0.4,2.8-0.4
		c1,0,1.9,0.1,2.8,0.4c0.9,0.2,1.6,0.6,2.2,1.1c0.6,0.5,1.1,1.1,1.5,1.9c0.4,0.8,0.5,1.7,0.5,2.7v18.6c0,1-0.2,1.9-0.5,2.7
		c-0.4,0.8-0.9,1.4-1.5,1.9c-0.6,0.5-1.4,0.9-2.2,1.1C50.8,168.1,49.9,168.2,48.9,168.2z M52,143.7c0-0.5-0.1-1-0.3-1.3
		c-0.2-0.4-0.4-0.7-0.7-0.9c-0.3-0.2-0.6-0.4-1-0.5c-0.4-0.1-0.7-0.2-1.1-0.2c-0.4,0-0.7,0.1-1.1,0.2c-0.4,0.1-0.7,0.3-1,0.5
		c-0.3,0.2-0.5,0.5-0.7,0.9c-0.2,0.4-0.3,0.8-0.3,1.3V162c0,0.5,0.1,1,0.3,1.3c0.2,0.4,0.4,0.7,0.7,0.9c0.3,0.2,0.6,0.4,1,0.5
		c0.4,0.1,0.7,0.2,1.1,0.2c0.4,0,0.7-0.1,1.1-0.2c0.4-0.1,0.7-0.3,1-0.5c0.3-0.2,0.5-0.5,0.7-0.9c0.2-0.4,0.3-0.8,0.3-1.3V143.7z"/>
	<path class="st1" d="M72.6,167.7c0,0.3-0.2,0.4-0.5,0.4h-0.4c-0.1,0-0.2,0-0.3-0.1c-0.1-0.1-0.1-0.1-0.1-0.2
		c-0.3-0.5-0.5-0.7-0.8-0.7c-0.2,0-0.5,0-0.7,0.2c-0.3,0.2-0.6,0.3-1,0.4c-0.4,0.1-0.8,0.2-1.2,0.3c-0.4,0.1-0.9,0.1-1.3,0.2
		c-0.4,0-0.9,0.1-1.3,0.1c-1.9,0-3.4-0.5-4.6-1.5c-1.2-1-1.8-2.5-1.8-4.6v-18.6c0-1,0.2-1.9,0.5-2.7c0.3-0.8,0.8-1.4,1.4-1.9
		c0.6-0.5,1.3-0.9,2.2-1.1c0.8-0.2,1.8-0.4,2.7-0.4c1,0,1.9,0.1,2.8,0.4c0.9,0.2,1.6,0.6,2.2,1.1c0.6,0.5,1.1,1.1,1.5,1.9
		c0.4,0.8,0.6,1.7,0.6,2.7v2.7h-1.8c-0.2,0-0.4,0-0.6-0.1c-0.3-0.1-0.5-0.2-0.7-0.3c-0.2-0.1-0.4-0.3-0.6-0.5
		c-0.2-0.2-0.3-0.5-0.3-0.8v-0.8c0-0.5-0.1-1-0.3-1.3c-0.2-0.4-0.4-0.7-0.7-0.9c-0.3-0.2-0.6-0.4-1-0.5c-0.4-0.1-0.7-0.2-1.1-0.2
		c-0.7,0-1.4,0.2-2,0.6c-0.6,0.4-0.9,1.2-0.9,2.2v18.2c0,1.1,0.3,1.8,0.9,2.2c0.6,0.4,1.2,0.6,2,0.6c0.3,0,0.7-0.1,1.1-0.2
		c0.4-0.1,0.7-0.3,1-0.5c0.3-0.2,0.6-0.5,0.7-0.9c0.2-0.4,0.3-0.8,0.3-1.3v-5.4c0-0.5-0.2-0.8-0.6-1c-0.4-0.1-0.7-0.3-0.9-0.6
		c-0.2-0.3-0.3-0.8-0.3-1.6v-1h4.8c0.2,0,0.4,0.1,0.6,0.2c0.3,0.1,0.4,0.4,0.4,0.8V167.7z"/>
	<path class="st1" d="M102.8,137.9v1.2c0,0.5-0.1,0.8-0.3,1.1c-0.2,0.3-0.4,0.5-0.6,0.6c-0.1,0.1-0.3,0.2-0.4,0.4
		c-0.1,0.1-0.2,0.3-0.2,0.5c-0.5,4.6-1,8.8-1.4,12.4c-0.2,1.6-0.4,3.1-0.5,4.6c-0.2,1.5-0.3,2.8-0.5,4c-0.1,1.2-0.3,2.2-0.4,2.9
		c-0.1,0.7-0.1,1.1-0.1,1.2c0,0.2-0.1,0.4-0.3,0.6c-0.1,0.2-0.4,0.3-0.6,0.3h-4.5c-0.3,0-0.5-0.1-0.7-0.2c-0.2-0.2-0.3-0.4-0.4-0.8
		l-3.3-19.5l-3.4,19.5c-0.1,0.3-0.3,0.6-0.4,0.8c-0.2,0.2-0.4,0.2-0.7,0.2h-4.5c-0.3,0-0.5-0.1-0.6-0.3c-0.1-0.2-0.2-0.4-0.3-0.6
		c0-0.1,0-0.5-0.1-1.2c-0.1-0.7-0.2-1.7-0.4-2.9c-0.1-1.2-0.3-2.5-0.5-4c-0.2-1.5-0.4-3-0.5-4.6c-0.4-3.7-0.9-7.8-1.4-12.4
		c-0.1-0.2-0.1-0.4-0.2-0.5c-0.1-0.1-0.2-0.3-0.4-0.4c-0.2-0.1-0.4-0.3-0.6-0.6c-0.2-0.3-0.3-0.7-0.3-1.1v-1.2h6.5v1.2
		c0,0.5-0.1,0.9-0.3,1.1c-0.2,0.3-0.4,0.5-0.6,0.6c-0.1,0.1-0.2,0.2-0.3,0.3c-0.1,0.1-0.1,0.3-0.1,0.6c0.5,4.2,0.9,7.9,1.2,11.1
		c0.2,1.4,0.3,2.8,0.5,4.1c0.2,1.3,0.3,2.5,0.4,3.6c0.1,1,0.2,1.9,0.3,2.5c0.1,0.6,0.2,1,0.2,1c0.3-2,0.6-3.7,0.9-5.3
		c0.3-1.6,0.5-3.3,0.8-5.2c0.3-1.9,0.6-3.8,0.9-5.7c0.3-1.9,0.6-3.6,0.9-5.2c0.3-1.6,0.5-2.8,0.7-3.7c0.1-0.3,0.3-0.6,0.8-0.7
		c0.4-0.1,0.9-0.2,1.3-0.2c0.5,0,0.9,0.1,1.3,0.3c0.4,0.2,0.7,0.4,0.7,0.7c0.2,0.9,0.5,2.2,0.7,3.8c0.3,1.6,0.6,3.3,0.9,5.2
		c0.3,1.9,0.6,3.7,0.9,5.7c0.3,1.9,0.6,3.6,0.8,5.2c0.3,1.5,0.5,3.3,0.9,5.2c0,0,0.1-0.3,0.2-1c0.1-0.6,0.2-1.5,0.3-2.5
		c0.1-1,0.3-2.2,0.4-3.6c0.2-1.3,0.3-2.7,0.5-4.1c0.4-3.3,0.8-7,1.2-11.1c0-0.3,0-0.5-0.1-0.6c-0.1-0.1-0.1-0.2-0.3-0.3
		c-0.2-0.1-0.4-0.3-0.6-0.6c-0.2-0.3-0.3-0.7-0.3-1.1v-1.2H102.8z"/>
	<path class="st1" d="M111.3,168.2c-1,0-1.9-0.1-2.8-0.4c-0.9-0.2-1.6-0.6-2.2-1.1c-0.6-0.5-1.1-1.1-1.5-1.9
		c-0.4-0.8-0.5-1.6-0.5-2.7v-18.6c0-1,0.2-1.9,0.5-2.7c0.4-0.8,0.9-1.4,1.5-1.9c0.6-0.5,1.4-0.9,2.2-1.1c0.9-0.2,1.8-0.4,2.8-0.4
		c1,0,1.9,0.1,2.8,0.4c0.9,0.2,1.6,0.6,2.2,1.1c0.6,0.5,1.1,1.1,1.5,1.9c0.4,0.8,0.5,1.7,0.5,2.7v18.6c0,1-0.2,1.9-0.5,2.7
		c-0.4,0.8-0.9,1.4-1.5,1.9c-0.6,0.5-1.4,0.9-2.2,1.1C113.3,168.1,112.3,168.2,111.3,168.2z M114.4,143.7c0-0.5-0.1-1-0.3-1.3
		c-0.2-0.4-0.4-0.7-0.7-0.9c-0.3-0.2-0.6-0.4-1-0.5c-0.4-0.1-0.7-0.2-1.1-0.2c-0.4,0-0.7,0.1-1.1,0.2c-0.4,0.1-0.7,0.3-1,0.5
		c-0.3,0.2-0.5,0.5-0.7,0.9c-0.2,0.4-0.3,0.8-0.3,1.3V162c0,0.5,0.1,1,0.3,1.3c0.2,0.4,0.4,0.7,0.7,0.9c0.3,0.2,0.6,0.4,1,0.5
		c0.4,0.1,0.7,0.2,1.1,0.2c0.4,0,0.7-0.1,1.1-0.2c0.4-0.1,0.7-0.3,1-0.5c0.3-0.2,0.5-0.5,0.7-0.9c0.2-0.4,0.3-0.8,0.3-1.3V143.7z"/>
	<path class="st1" d="M128.1,168.2c-1,0-1.9-0.1-2.8-0.4c-0.9-0.2-1.6-0.6-2.2-1.1c-0.6-0.5-1.1-1.1-1.5-1.9
		c-0.4-0.8-0.5-1.6-0.5-2.7v-18.6c0-1,0.2-1.9,0.5-2.7c0.4-0.8,0.9-1.4,1.5-1.9c0.6-0.5,1.4-0.9,2.2-1.1c0.9-0.2,1.8-0.4,2.8-0.4
		c1,0,1.9,0.1,2.8,0.4c0.9,0.2,1.6,0.6,2.2,1.1c0.6,0.5,1.1,1.1,1.5,1.9c0.4,0.8,0.5,1.7,0.5,2.7v18.6c0,1-0.2,1.9-0.5,2.7
		c-0.4,0.8-0.9,1.4-1.5,1.9c-0.6,0.5-1.4,0.9-2.2,1.1C130.1,168.1,129.1,168.2,128.1,168.2z M131.2,143.7c0-0.5-0.1-1-0.3-1.3
		c-0.2-0.4-0.4-0.7-0.7-0.9c-0.3-0.2-0.6-0.4-1-0.5c-0.4-0.1-0.7-0.2-1.1-0.2c-0.4,0-0.7,0.1-1.1,0.2c-0.4,0.1-0.7,0.3-1,0.5
		c-0.3,0.2-0.5,0.5-0.7,0.9c-0.2,0.4-0.3,0.8-0.3,1.3V162c0,0.5,0.1,1,0.3,1.3c0.2,0.4,0.4,0.7,0.7,0.9c0.3,0.2,0.6,0.4,1,0.5
		c0.4,0.1,0.7,0.2,1.1,0.2c0.4,0,0.7-0.1,1.1-0.2c0.4-0.1,0.7-0.3,1-0.5c0.3-0.2,0.5-0.5,0.7-0.9c0.2-0.4,0.3-0.8,0.3-1.3V143.7z"/>
	<path class="st1" d="M145.7,137.9c1.1,0,2.1,0.2,2.9,0.5c0.8,0.3,1.5,0.7,2,1.3c0.5,0.6,0.9,1.2,1.1,2c0.2,0.8,0.4,1.7,0.4,2.7v17
		c0,2-0.5,3.6-1.5,4.8c-1,1.2-2.6,1.8-4.9,1.8h-8.6v-1.1c0-0.6,0.1-1,0.2-1.3c0.2-0.3,0.4-0.5,0.6-0.7c0.3-0.2,0.5-0.5,0.5-0.8
		v-22.1c0-0.2-0.1-0.4-0.2-0.6c-0.1-0.1-0.2-0.2-0.4-0.3c-0.3-0.1-0.5-0.3-0.6-0.6c-0.1-0.3-0.2-0.7-0.2-1.2v-1.2H145.7z
		 M148.1,144.3c0-0.9-0.2-1.7-0.6-2.2c-0.4-0.6-1-0.8-1.9-0.8h-2.8c-0.2,0-0.3,0.1-0.4,0.2c-0.1,0.1-0.1,0.2-0.1,0.4V164
		c0,0.1,0,0.3,0.1,0.4c0.1,0.1,0.2,0.2,0.3,0.2h2.9c0.9,0,1.5-0.3,1.9-0.8c0.4-0.6,0.6-1.3,0.6-2.2V144.3z"/>
	<path class="st1" d="M170.5,168.1c-1,0-1.9-0.1-2.7-0.4c-0.8-0.2-1.6-0.6-2.2-1.1c-0.6-0.5-1.1-1.1-1.4-1.9
		c-0.3-0.8-0.5-1.6-0.5-2.7v-18.6c0-1,0.2-1.9,0.5-2.7c0.4-0.8,0.8-1.4,1.5-1.9c0.6-0.5,1.3-0.9,2.2-1.1c0.9-0.2,1.8-0.4,2.8-0.4
		c1,0,1.9,0.1,2.7,0.4c0.8,0.2,1.6,0.6,2.2,1.1c0.6,0.5,1.1,1.1,1.5,1.9c0.4,0.8,0.5,1.7,0.5,2.7v3h-1.7c-0.7,0-1.2-0.2-1.6-0.6
		c-0.4-0.4-0.6-0.9-0.6-1.6v-0.6c0-1.1-0.3-1.8-0.9-2.3c-0.6-0.5-1.3-0.7-2.1-0.7c-0.7,0-1.4,0.2-2.1,0.7c-0.6,0.5-0.9,1.2-0.9,2.3
		v18.3c0,0.8,0.3,1.5,0.9,2s1.3,0.8,2,0.8c0.4,0,0.7-0.1,1.1-0.2c0.4-0.1,0.7-0.3,1-0.6c0.3-0.3,0.5-0.5,0.7-0.9
		c0.2-0.3,0.3-0.7,0.3-1.1v-0.7c0-0.6,0.2-1.1,0.5-1.6c0.4-0.4,0.9-0.7,1.6-0.7h1.8v3.4c0,1-0.2,1.9-0.6,2.6
		c-0.4,0.7-0.9,1.3-1.5,1.8c-0.6,0.5-1.4,0.8-2.2,1C172.4,168,171.5,168.1,170.5,168.1z"/>
	<path class="st1" d="M195.2,164.9c0.2,0.1,0.4,0.4,0.6,0.7c0.2,0.3,0.3,0.7,0.3,1.2v1.1h-6.7v-1.1c0-0.5,0.1-0.9,0.3-1.2
		c0.2-0.3,0.4-0.5,0.6-0.6c0.1-0.1,0.2-0.2,0.3-0.3c0.1-0.1,0.1-0.3,0.1-0.5c-0.1-0.5-0.1-1-0.2-1.4c-0.1-0.4-0.1-0.7-0.2-1.1
		c-0.1-0.3-0.1-0.6-0.1-0.7c-0.1-0.3-0.2-0.5-0.3-0.6c-0.2-0.1-0.4-0.2-0.6-0.2h-4.6c-0.4,0-0.7,0.3-0.7,0.8c0,0.1,0,0.4-0.1,0.7
		c0,0.3,0,0.7-0.1,1.1c-0.1,0.4-0.1,0.9-0.2,1.4c0,0.2,0,0.4,0.1,0.5c0.1,0.1,0.1,0.2,0.3,0.3c0.2,0.1,0.4,0.3,0.6,0.6
		c0.2,0.3,0.3,0.7,0.3,1.2v1.1h-6.7v-1c0-0.5,0.1-0.9,0.3-1.2c0.2-0.4,0.4-0.6,0.6-0.7c0.1-0.1,0.3-0.2,0.4-0.3
		c0.1-0.1,0.2-0.3,0.2-0.5c0.7-4.1,1.4-7.8,2-11c0.3-1.4,0.5-2.7,0.8-4.1c0.2-1.3,0.5-2.5,0.7-3.5c0.2-1,0.4-1.9,0.5-2.5
		c0.1-0.6,0.2-1,0.2-1c0-0.2,0-0.4,0-0.6c0-0.2-0.1-0.3-0.2-0.3c-0.7-0.3-1-1-1-2.1v-0.9h5.4c0.6,0,1.1,0.2,1.5,0.5
		c0.4,0.4,0.6,0.8,0.6,1.3c0,0.1,0.1,0.5,0.2,1.3c0.1,0.7,0.3,1.7,0.5,2.9c0.2,1.2,0.4,2.5,0.7,3.9c0.3,1.4,0.5,2.9,0.8,4.4
		c0.6,3.5,1.3,7.5,2.1,11.9c0.1,0.2,0.1,0.4,0.2,0.5C194.9,164.6,195,164.8,195.2,164.9z M189.1,156.8c0.2,0,0.3-0.1,0.4-0.2
		c0.1-0.1,0.1-0.3,0.1-0.4c0,0,0-0.3-0.1-0.7c-0.1-0.4-0.2-1-0.3-1.6c-0.1-0.7-0.2-1.4-0.4-2.3c-0.1-0.8-0.3-1.7-0.4-2.6l-1.2-7
		h-0.1l-1.2,7c-0.2,0.9-0.3,1.7-0.4,2.6c-0.1,0.8-0.3,1.6-0.4,2.3c-0.1,0.7-0.2,1.2-0.3,1.6c-0.1,0.4-0.1,0.7-0.1,0.7
		c0,0.2,0,0.3,0.1,0.5c0.1,0.1,0.2,0.2,0.4,0.2H189.1z"/>
	<path class="st1" d="M213.2,137.9v1.2c0,0.5-0.1,0.8-0.3,1.1c-0.2,0.3-0.4,0.5-0.6,0.7c-0.1,0.1-0.2,0.2-0.3,0.3
		c-0.1,0.1-0.1,0.3-0.1,0.5v25.1c0,0.3-0.1,0.5-0.2,0.7c-0.2,0.2-0.4,0.3-0.7,0.3h-2.3c-0.3,0-0.6-0.1-0.7-0.4
		c-0.1-0.3-0.3-0.7-0.4-1.1c-0.1-0.1-0.2-0.7-0.5-1.6c-0.3-0.9-0.6-2-1.1-3.3c-0.4-1.3-0.9-2.7-1.3-4.1c-0.5-1.5-0.9-2.8-1.3-4.1
		c-0.4-1.3-0.7-2.3-1-3.1c-0.3-0.8-0.4-1.3-0.4-1.3c0-0.1-0.1-0.1-0.1-0.1c0,0,0,0,0,0.2V164c0,0.3,0,0.5,0.1,0.6
		c0.1,0.1,0.2,0.2,0.3,0.3c0.2,0.2,0.4,0.4,0.6,0.7c0.2,0.3,0.3,0.7,0.3,1.1v1.2h-6.3v-1.2c0-0.5,0.1-0.8,0.3-1.1
		c0.2-0.3,0.4-0.5,0.6-0.7c0.1-0.1,0.2-0.2,0.3-0.3c0.1-0.1,0.1-0.3,0.1-0.6v-22.6c-0.3-0.1-0.5-0.3-0.7-0.4
		c-0.2-0.2-0.3-0.4-0.5-0.7c-0.1-0.3-0.2-0.6-0.2-1.1v-1.3h4.5c0.3,0,0.6,0.1,0.7,0.2c0.2,0.1,0.3,0.4,0.4,0.6
		c0,0.1,0.1,0.5,0.4,1.4c0.3,0.9,0.6,1.9,1,3.2c0.4,1.3,0.8,2.7,1.3,4.2c0.5,1.5,0.9,3,1.3,4.3c0.4,1.4,0.8,2.6,1.1,3.6
		s0.5,1.7,0.6,2.1c0,0.1,0.1,0.1,0.1,0.2c0,0.1,0.1,0,0.1,0v-15.9c0-0.3,0-0.5-0.1-0.6c-0.1-0.1-0.2-0.2-0.3-0.3
		c-0.2-0.2-0.4-0.4-0.6-0.7c-0.2-0.3-0.3-0.7-0.3-1.1v-1.2H213.2z"/>
	<path class="st1" d="M230.8,137.9v1.2c0,0.5-0.1,0.8-0.3,1.1c-0.2,0.3-0.4,0.5-0.6,0.6c-0.1,0.1-0.2,0.2-0.4,0.3
		c-0.2,0.1-0.3,0.3-0.3,0.5c0,0.1-0.1,0.3-0.3,0.8c-0.1,0.5-0.3,1-0.5,1.7c-0.2,0.7-0.5,1.5-0.7,2.4c-0.3,0.9-0.6,1.8-0.9,2.7
		c-0.7,2.1-1.5,4.5-2.3,7.2v7.6v0c0,0.3,0,0.5,0.1,0.6c0.1,0.1,0.2,0.2,0.3,0.3c0.2,0.2,0.4,0.4,0.6,0.7c0.2,0.3,0.3,0.7,0.3,1.1
		v1.2h-6.7v-1.2c0-0.5,0.1-0.8,0.3-1.1c0.2-0.3,0.4-0.5,0.6-0.7c0.1-0.1,0.2-0.2,0.3-0.3c0.1-0.1,0.1-0.3,0.1-0.5v-7.7
		c-0.9-2.7-1.6-5.2-2.3-7.3c-0.3-0.9-0.6-1.8-0.9-2.7c-0.3-0.9-0.5-1.7-0.7-2.4c-0.2-0.7-0.4-1.3-0.5-1.7c-0.1-0.4-0.2-0.7-0.2-0.7
		c-0.1-0.2-0.1-0.3-0.3-0.4c-0.1-0.1-0.2-0.2-0.3-0.2c-0.2-0.1-0.4-0.3-0.6-0.6c-0.2-0.3-0.3-0.7-0.3-1.1v-1.2h6.5v1.3
		c0,0.5-0.1,0.8-0.3,1.1c-0.2,0.2-0.4,0.4-0.6,0.6c-0.1,0.1-0.3,0.2-0.4,0.3c-0.1,0.1-0.2,0.3-0.1,0.5c0,0.1,0,0.2,0.1,0.6
		c0.1,0.3,0.2,0.7,0.3,1.2c0.1,0.5,0.3,1,0.5,1.6c0.2,0.6,0.3,1.2,0.5,1.8c0.4,1.4,0.8,3,1.3,4.8h0.2c0.6-1.8,1.1-3.4,1.5-4.8
		c0.2-0.6,0.4-1.2,0.6-1.8c0.2-0.6,0.4-1.1,0.5-1.6c0.1-0.5,0.3-0.9,0.4-1.2c0.1-0.3,0.2-0.5,0.2-0.5c0.1-0.2,0-0.4-0.1-0.5
		c-0.1-0.1-0.2-0.2-0.4-0.3c-0.2-0.1-0.4-0.3-0.6-0.6c-0.2-0.3-0.3-0.7-0.3-1.1v-1.2H230.8z"/>
	<path class="st1" d="M239.4,168.2c-1,0-1.9-0.1-2.8-0.4c-0.9-0.2-1.6-0.6-2.2-1.1c-0.6-0.5-1.1-1.1-1.5-1.9
		c-0.4-0.8-0.5-1.6-0.5-2.7v-18.6c0-1,0.2-1.9,0.5-2.7c0.4-0.8,0.9-1.4,1.5-1.9c0.6-0.5,1.4-0.9,2.2-1.1c0.9-0.2,1.8-0.4,2.8-0.4
		c1,0,1.9,0.1,2.8,0.4c0.9,0.2,1.6,0.6,2.2,1.1c0.6,0.5,1.1,1.1,1.5,1.9c0.4,0.8,0.5,1.7,0.5,2.7v18.6c0,1-0.2,1.9-0.5,2.7
		c-0.4,0.8-0.9,1.4-1.5,1.9c-0.6,0.5-1.4,0.9-2.2,1.1C241.3,168.1,240.4,168.2,239.4,168.2z M242.5,143.7c0-0.5-0.1-1-0.3-1.3
		c-0.2-0.4-0.4-0.7-0.7-0.9c-0.3-0.2-0.6-0.4-1-0.5c-0.4-0.1-0.7-0.2-1.1-0.2c-0.4,0-0.7,0.1-1.1,0.2c-0.4,0.1-0.7,0.3-1,0.5
		c-0.3,0.2-0.5,0.5-0.7,0.9c-0.2,0.4-0.3,0.8-0.3,1.3V162c0,0.5,0.1,1,0.3,1.3c0.2,0.4,0.4,0.7,0.7,0.9c0.3,0.2,0.6,0.4,1,0.5
		c0.4,0.1,0.7,0.2,1.1,0.2c0.4,0,0.7-0.1,1.1-0.2c0.4-0.1,0.7-0.3,1-0.5c0.3-0.2,0.5-0.5,0.7-0.9c0.2-0.4,0.3-0.8,0.3-1.3V143.7z"/>
	<path class="st1" d="M264.7,137.9v1.2c0,0.5-0.1,0.8-0.3,1.1c-0.2,0.3-0.4,0.5-0.6,0.7c-0.1,0.1-0.2,0.2-0.3,0.3
		c-0.1,0.1-0.1,0.3-0.1,0.5v25.1c0,0.3-0.1,0.5-0.2,0.7c-0.2,0.2-0.4,0.3-0.7,0.3h-2.3c-0.3,0-0.6-0.1-0.7-0.4
		c-0.1-0.3-0.3-0.7-0.4-1.1c-0.1-0.1-0.2-0.7-0.5-1.6c-0.3-0.9-0.6-2-1.1-3.3c-0.4-1.3-0.9-2.7-1.3-4.1c-0.5-1.5-0.9-2.8-1.3-4.1
		c-0.4-1.3-0.7-2.3-1-3.1c-0.3-0.8-0.4-1.3-0.4-1.3c0-0.1-0.1-0.1-0.1-0.1c0,0,0,0,0,0.2V164c0,0.3,0,0.5,0.1,0.6
		c0.1,0.1,0.2,0.2,0.3,0.3c0.2,0.2,0.4,0.4,0.6,0.7c0.2,0.3,0.3,0.7,0.3,1.1v1.2h-6.3v-1.2c0-0.5,0.1-0.8,0.3-1.1
		c0.2-0.3,0.4-0.5,0.6-0.7c0.1-0.1,0.2-0.2,0.3-0.3c0.1-0.1,0.1-0.3,0.1-0.6v-22.6c-0.3-0.1-0.5-0.3-0.7-0.4
		c-0.2-0.2-0.3-0.4-0.5-0.7c-0.1-0.3-0.2-0.6-0.2-1.1v-1.3h4.5c0.3,0,0.6,0.1,0.7,0.2c0.2,0.1,0.3,0.4,0.4,0.6
		c0,0.1,0.1,0.5,0.4,1.4c0.3,0.9,0.6,1.9,1,3.2c0.4,1.3,0.8,2.7,1.3,4.2c0.5,1.5,0.9,3,1.3,4.3c0.4,1.4,0.8,2.6,1.1,3.6
		c0.3,1,0.5,1.7,0.6,2.1c0,0.1,0.1,0.1,0.1,0.2c0,0.1,0.1,0,0.1,0v-15.9c0-0.3,0-0.5-0.1-0.6c-0.1-0.1-0.2-0.2-0.3-0.3
		c-0.2-0.2-0.4-0.4-0.6-0.7c-0.2-0.3-0.3-0.7-0.3-1.1v-1.2H264.7z"/>
</g>
<g>
	<path class="st1" d="M42.4,174.4h2.1l4.8,6.4v-6.4h2.2v10.3h-1.9l-5-6.6v6.6h-2.2V174.4z"/>
	<path class="st1" d="M67.1,174.3h2.1l4.4,10.4h-2.4l-0.9-2.3H66l-0.9,2.3h-2.3L67.1,174.3z M69.5,180.4l-1.4-3.3l-1.4,3.3H69.5z"/>
	<path class="st1" d="M85.9,176.5h-3.1v-2.1h8.6v2.1h-3.1v8.2h-2.3V176.5z"/>
	<path class="st1" d="M102.5,180.3v-5.9h2.3v5.8c0,1.7,0.8,2.6,2.2,2.6c1.4,0,2.2-0.8,2.2-2.5v-5.9h2.3v5.8c0,3.1-1.8,4.7-4.5,4.7
		C104.2,184.9,102.5,183.3,102.5,180.3z"/>
	<path class="st1" d="M123.4,174.4h4.7c1.3,0,2.3,0.4,3,1c0.6,0.6,0.9,1.4,0.9,2.4v0c0,1.7-0.9,2.7-2.2,3.2l2.5,3.7h-2.7l-2.2-3.3h0
		h-1.8v3.3h-2.3V174.4z M128,179.4c1.1,0,1.7-0.6,1.7-1.5v0c0-1-0.7-1.5-1.8-1.5h-2.3v3H128z"/>
	<path class="st1" d="M143.6,174.4h7.8v2h-5.5v2.1h4.9v2h-4.9v2.2h5.6v2h-7.9V174.4z"/>
	<path class="st1" d="M177.1,174.4h4.2c2.5,0,4,1.5,4,3.6v0c0,2.4-1.9,3.6-4.2,3.6h-1.7v3.1h-2.3V174.4z M181.2,179.6
		c1.1,0,1.8-0.7,1.8-1.6v0c0-1-0.7-1.6-1.8-1.6h-1.8v3.2H181.2z"/>
	<path class="st1" d="M199.1,174.3h2.1l4.4,10.4h-2.4l-0.9-2.3h-4.4l-0.9,2.3h-2.3L199.1,174.3z M201.5,180.4l-1.4-3.3l-1.4,3.3
		H201.5z"/>
	<path class="st1" d="M216.8,174.4h4.7c1.3,0,2.3,0.4,3,1c0.6,0.6,0.9,1.4,0.9,2.4v0c0,1.7-0.9,2.7-2.2,3.2l2.5,3.7H223l-2.2-3.3h0
		H219v3.3h-2.3V174.4z M221.3,179.4c1.1,0,1.7-0.6,1.7-1.5v0c0-1-0.7-1.5-1.8-1.5H219v3H221.3z"/>
	<path class="st1" d="M237,174.4h2.3v4.5l4.2-4.5h2.7l-4.2,4.4l4.4,5.9h-2.7l-3.2-4.4l-1.2,1.2v3.2H237V174.4z"/>
</g>
<g>
	<path class="st2" d="M189.2,218.7c-0.1,0.3,0.1,1.1-0.7,1.1c-0.8,0-1.3-0.6-1.1-1.2c0.2-0.6,0.2-0.8-0.7-0.8c-0.8,0-1-0.1-1.1,0.5
		c-0.1,0.6-0.8,1.3-1.6,0.6c-0.8-0.7,0.3-1-1.2-0.8c-1.5,0.2-2.5,0.4-4.1,0.5c-1.6,0.1-4.3-0.2-4.7-0.1c-0.4,0.1-0.2-0.4-0.7,0.2
		c-0.5,0.6-1.7,0.1-1.9-0.2c-0.2-0.4-1-0.7-1.2-0.1c-0.1,0.6,0,1.6-1.3,1c-1.3-0.5-0.2-1.5-1.1-1.5c-0.9,0-6.1-0.2-8.2-0.2
		s-2.6,0.1-2.6,0.9c0,0.8-1.8,1.1-1.9-0.1c-0.1-1.2-0.2-1-1-1s-5.4,0.1-6.3,0.2c-0.9,0.2-1.1-0.1-1.3,0.8c-0.1,0.8-1.6,0.7-2.2,0.6
		c-0.6-0.1-0.8-0.3-0.8-0.8c0-0.5-0.6-0.4-0.8,0.1c-0.1,0.5,1,1,0.3,1.4c-0.8,0.5-1.9,0-2.2-0.4c-0.2-0.4-0.7-1-1.3-1
		c-0.6,0-4.2-0.1-4.6,0.2c-0.4,0.2-0.7,0.1-0.7,0.4s0.1,1-0.7,1.2c-0.7,0.2-2.1-0.2-2.2-0.5c-0.1-0.3-0.8-0.7-1.4-0.6
		c-0.6,0.1-1.3-0.1-1.3,0.5c0,0.6,0.1,1.1-0.6,1.1c-0.7,0-1.2-0.2-1.2-0.4c0-0.3-0.1-0.9-0.8-0.6c-0.7,0.3-0.7,0.1-1,0.5
		c-0.3,0.4-1.3,1-2.1,0.6c-0.8-0.4-0.7-0.4-1.3-0.4c-0.6,0.1-3.1,0.4-3.4,0.7c-0.3,0.2-1.4,0.1-1.6,0.2c-0.2,0.2-1.4,0.6-1.5,0.9
		c-0.1,0.3-0.9,0.7-1.5,0.4c0,0-1.6,0-2.2,0.7c-0.7,0.7-1.5,1.3-2.6,1.5c-1.1,0.2-1.3-0.8-1.3-1.3c0-1.3-0.8-4.7-2.9-6.5
		c0,0-1.6-0.9-3-1c-1.3-0.2-2.4-0.3-2.9-0.3c0,0-1-0.2-2.9,0.3c-0.7,0.1-3.9,0.6-6.8,1.5c-2.6,0.8-3.9,1.1-4.4,1.4
		c-0.5,0.3-0.7,0.8-0.2,1.3c0.4,0.4,1.8,0.5,2.5,1c0.7,0.5,1.4,1.3,1.6,2c0.1,0.4,1,1.2,2.1,1.6c0,0,1.7,0.3,2,0.7
		c0.3,0.3,1.3,1.4-0.3,1.4c-0.9,0-2.2-0.5-3-1.2c-0.7-0.7-1.3-0.7-2.1-0.8c-0.8-0.1-1.9-0.3-2.5-0.1c-0.5,0.1-1,1,0.2,1.7
		c1.2,0.7,4.3,2.2,5.8,2.7c1.5,0.4,3.4,1.3,4.5,1.6c1,0.3,6.4,2.1,6.9,2.1c0.4,0,6.4,1.1,6.4,1.1s12.3,1.6,18.1,2
		c5.8,0.4,21.8-0.7,23.7-0.9c1.9-0.2,13.2-2.1,13.2-2.1s4.6-0.9,6.4-2.5c1.8-1.6,6.2-5.1,8.4-5.2c2.2-0.1,5.1-0.3,7,0.6
		c1.9,0.9,3.5,2.1,4.4,1.8c0.9-0.2,1.6-1.6,2.5-3.2c1-1.6,1-2.8,0.1-4.4C190.8,218.6,189.4,218.4,189.2,218.7z M93.8,219.7
		c-0.1,0.7-0.5,1.1-0.8,1.4c-0.4,0.3-1.2,0.5-2,0.3c-0.8-0.3-0.9-0.9-0.9-0.9c-0.3-0.5-0.1-1,0.1-1c0.2,0,0.5,0.1,0.8,0.3
		c0.3,0.2,0.7,0.2,0.8-0.2c0.1-0.4-0.2-0.5-0.5-0.9c-0.3-0.4-0.2-0.8,0.3-0.8c0.4-0.1,1-0.1,1.4,0.1C93.3,218.2,93.9,219,93.8,219.7
		z M102.2,227.1c-1.1,3-5.5,3.4-6.5,2.8c-1-0.5-0.4-1,1.6-1.1c2-0.2,2.8-1.5,3.6-3.2c0.8-1.7-0.6-6.7-0.6-6.7
		c0.8-1.7,1.9,1.9,2.2,3.1C103,223.1,103.3,224.1,102.2,227.1z M111.9,225.2c0.2-0.8,0.9-1,0.9-1c1.6-0.5,2.2,0.3,2.3,0.7
		c0.1,0.4,0.3,1.2-1.2,1.5C112.4,226.7,111.6,226,111.9,225.2z M118,232.4c-1.6,0.6-4.3,0.9-4.9,0.4c-0.6-0.5-5.2-1.2-5.8-1.6
		c-0.6-0.3-0.2-0.6,0-0.8c0.2-0.1,0.3-0.1,0.5-0.3c-0.5-0.1-0.8-0.2-0.8-0.3c0-0.4,0.3-0.8,0.6-0.9c0.1,0,0.2,0,0.4,0
		c-0.2-0.3-0.5-0.6-0.5-0.6c-0.2-0.6,0.5-0.6,0.8-0.6c0.3,0,1.9,0.1,3,0.2c1.1,0.1,8.2,0.9,8.9,2.1C121,231.2,119.6,231.9,118,232.4
		z M119.7,226.3c-2.7,0.1-2.8-1.7-2.2-2.2c0.5-0.5,2.1-0.9,2.1-0.9c1.1,0,1.8,0.6,1.9,1.1C121.7,224.7,122.4,226.2,119.7,226.3z
		 M132.1,222c-0.4,0.7-1.8,0.6-2.4-0.3c-0.6-0.9,0.4-1.2,0.4-1.2C131.6,220.2,132.5,221.2,132.1,222z M141.4,221.9
		c-0.5,0.5-2.2,0-1.9-0.7c0.2-0.7,0.8-0.5,0.8-0.5C141.6,220.8,141.9,221.4,141.4,221.9z M148.8,220.9c-0.8,0.7-1.7-0.3-1.4-1
		c0.3-0.7,1.4-0.7,1.4-0.7C149.6,219.2,149.6,220.2,148.8,220.9z M153.2,220c-1.3,0.4-2.7-0.1-2.5-0.8s2.5-0.7,2.5-0.7
		C154,218.6,154.5,219.5,153.2,220z M156.5,222.5c-1.4,0.3-2.2-0.4-1.8-0.9c0.4-0.4,1.9-0.6,1.9-0.6
		C157.8,221.1,157.9,222.2,156.5,222.5z M161,220.5c-0.6,0.4-2,0.4-2-0.4c0-0.7,1.3-1,1.3-1C161.1,218.9,161.6,220,161,220.5z
		 M171.9,221.2c-1.2,0.1-1.7-0.1-1.6-0.8c0.1-0.7,1.2-0.5,1.2-0.5C171.9,219.7,173.1,221.1,171.9,221.2z M182.2,220.5
		c-0.1,0.4-1,0.7-1.3,0.1c-0.3-0.6,0.3-0.6,0.3-0.6C181.7,219.3,182.3,220.1,182.2,220.5z M185,221.4c-0.9,0.4-0.8-0.4-0.4-1
		c0.4-0.6,1.1-0.3,1.1-0.3C186.5,220.3,185.9,220.9,185,221.4z"/>
	<path class="st6" d="M167.8,221.6c0,0-6.6-1.5-16.1-1.7c-9.5-0.2-34.4,2.5-34.4,2.5s-8,0.7-6.1,2.3c1.9,1.6,19.2,1.7,27.5,1.6
		c8.3-0.1,26.9-1.4,29.6-2.4C171.9,222.6,167.8,221.6,167.8,221.6z"/>
	<path class="st7" d="M95.4,215.9c0,0,5.6,0.7,6,4.4c0.4,3.7,1.8,6.2,3.8,5.4c2-0.9,5.5-0.6,7.4-0.1c1.8,0.4,3.1-1.7,6-0.9
		c2.8,0.9,2.3,2.3,4.7-0.4c2.4-2.7,5.3-3,8.1-2.4c2.8,0.6,5,0.6,6.8-0.1c1.8-0.7,1.1-0.5,3.2,0c2.2,0.5,5.7,0.7,6.6-0.2
		c0.9-0.9,4.3-2.3,5.3-1.1c1,1.1,3.5,1.6,6,1.1c2.4-0.6,5.3-0.4,8.1,0.6c2.8,1,4.4-0.2,6.8-1.9c2.4-1.7,3.9,0.8,6.6,1.7
		c2.7,0.9,4.6,1.3,7.1-0.4c2.4-1.7,5.7-1.7,5.7-1.7s0.9-3.7-4.4-4.1c-5.3-0.4-25.8-1.1-25.8-1.1l-42.8-0.3l-21.2-0.6L95.4,215.9z"/>
	<path class="st2" d="M153,237.1c0,0-2.5,0-2.8,0.2c-0.3,0.2,0,0.4,0.8,0.6c0.8,0.2,2.2,0.3,2.3,0C153.4,237.6,153.5,237,153,237.1z
		"/>
	<path class="st0" d="M108.1,213.7c2.2-0.3,24.4-2.3,39.9,0.2c15.4,2.5,16,2.4,12.4,1.2c0,0-13.7-3.6-27.3-4
		c-13.6-0.5-25.1,1.8-26.4,2.2C105.4,213.7,105.8,214,108.1,213.7z"/>
	<linearGradient id="SVGID_1_" gradientUnits="userSpaceOnUse" x1="134.078" y1="219.166" x2="134.078" y2="232.0668">
		<stop  offset="0" style="stop-color:#676636"/>
		<stop  offset="1" style="stop-color:#C8B783"/>
	</linearGradient>
	<path class="st8" d="M108.1,213.7c2.2-0.3,24.4-2.3,39.9,0.2c15.4,2.5,16,2.4,12.4,1.2c0,0-13.7-3.6-27.3-4
		c-13.6-0.5-25.1,1.8-26.4,2.2C105.4,213.7,105.8,214,108.1,213.7z"/>
	<path class="st5" d="M137.5,216.1c-0.1,0.9,1.5,1.5,2,1c0.5-0.5-0.4-1.6-1-1.6C138.5,215.5,137.6,215.2,137.5,216.1z"/>
	<path class="st5" d="M128.6,214.5c0,0-0.8,1,0.2,1.1c1,0.2,1.6-0.4,1.3-0.9C129.9,214.2,129.3,214.1,128.6,214.5z"/>
	<path class="st5" d="M124.2,216.9c-0.8,0.6-0.2,1,0.8,1.1c1,0.1,1.7-1.3,0.5-1.3C125.5,216.6,124.9,216.3,124.2,216.9z"/>
	<path class="st5" d="M115.9,216.9c0,0-0.7,0.4-0.1,1.1c0.5,0.7,1.6,0.2,1.8-0.1C117.7,217.7,118,216.5,115.9,216.9z"/>
	<path class="st5" d="M110.9,219.7c0,0-0.9,0.3-0.8,1c0.1,0.7,1,0.3,1.4-0.1C112,220.1,112.1,219.3,110.9,219.7z"/>
	<path class="st2" d="M173.7,229.9c-0.5,0.4-2.3,2.3-2.3,2.3s-1.4,1.4,1.8,1.6c0.8,0,0.6-1.2,1.1-1.7c0.5-0.5,0.6-1,0.5-1.8
		C174.7,229.5,174.2,229.6,173.7,229.9z"/>
	<path class="st5" d="M142,208.3c2.1,0.3,2.9,0.3,3.9,0.6c1,0.3,2.3,0.4,2.6,0.4c0.3,0,4,1,4,1s1.5,0.4,1.3-0.1
		c-0.2-0.5-0.6-0.7-1.1-1.1c-0.5-0.4-1-1.5-1.4-1.5c-0.4,0-2.3-0.8-2.5-1.1c-0.2-0.3-0.6-1-0.9-1.2c-0.3-0.3-1.6-1-1.6-1
		s-0.6-0.3-1.2,0c-0.7,0.3-2.6,1.8-3.1,2.3C141.5,207,139.9,208,142,208.3z"/>
	<path class="st5" d="M203.5,208.4c-1,0-6.3,2.4-8.6,3.3c-2.3,0.9-3.1,2-3.1,2.8c0,0.8,1.5,1.5,2.1,3.2c0.7,1.7,1,2.4,1,4.4
		s-1.1,4.5-1.8,5.5c-0.8,1-0.2,1.5,0.3,1.8c0.5,0.3,4.5,2.7,5.3,3.1c1,0.5,4.1,1.9,4.6,0.8c0.6-1.1-0.3-3.3-0.3-3.3
		c-0.7-1.7-0.4-1.8-0.8-2.9c-0.7-1.9,0.3-2-0.1-3.2c-0.4-1.1-0.2-2.1,0.5-3.3c0.7-1.2,0.6-2.6,0.7-3.7c0-1.1,0.3-1.5,0.9-2.8
		c0.5-1.3-0.2-2.2,0.5-3.1c0.8-0.9,0.4-2,0.2-2.4C204.8,208.4,203.5,208.4,203.5,208.4z"/>
	<path class="st2" d="M108.1,229c-0.2,0-0.4,0-0.4,0c-0.4,0.1-0.6,0.5-0.6,0.9c0,0.1,0.3,0.2,0.8,0.3c0.1-0.1,0.2-0.3,0.3-0.5
		C108.3,229.4,108.2,229.2,108.1,229z"/>
	<path class="st2" d="M115.6,230.8c1.2-0.6-1.3-1.2-4.8-1.5c0,0-1.8-0.3-2.7-0.4c0.1,0.2,0.2,0.5,0.1,0.7c-0.1,0.2-0.2,0.4-0.3,0.5
		c1.3,0.3,3.8,0.7,4.1,0.7C112.4,231,114.4,231.4,115.6,230.8z"/>
	<g>
		<path class="st0" d="M208.3,208.4c0.2-1,0.4-2.3-0.3-3.1c-0.3-0.4-0.8-0.7-1.5-0.7c-2.9-0.3-12.4,3.6-18.5,7.4l0,0
			c0,0-0.7,0.6-1.8,1.2c-0.7,0.5-3.8,0.8-6.3,1c-1.1,0.1-2.2-0.2-2.8-0.8l-0.2-0.2c-0.6-0.6-1.5-1.4-2.7-1.4c-0.9,0-1.8,0.6-2.6,1.1
			c-0.3,0.2-0.7,0.4-1,0.6c-0.8,0.4-1.1,0.5-2.6,0.3l-0.3,0c-5.8-0.8-7.1-1.4-7.4-1.6c-0.3-0.3-0.6-0.7-1-1.1c-1-1.3-1.7-2-2.3-2.2
			c-0.6-0.1-1.5-1-1.5-1.3c0.1-0.3,0-0.6-0.3-0.9c-0.7-0.8-2.6-1.9-3.5-1.9c-0.4,0-1.5-1-1.6-1.4c-0.2-0.5-0.8-0.9-1.6-1.4
			c-0.2-0.1-0.3-0.2-0.4-0.3c0,0-0.1-0.1-0.1-0.1c-0.6-0.4-2.5-1.8-4.5-0.8c-1.8,0.9-5.2,4.2-5.5,4.6l-3,2.3l0,0.1
			c-0.1,0.1-0.9,0.6-3.9,0.5h0c-0.2,0-15.6-0.3-31.9,3.6c-0.1,0-6.4,1.5-11.7,3.7c-1.3,0.6-2.3,0.9-3.1,1.2c-2.4,0.9-2.7,1.1-3,2.4
			c-0.3,1.2,0.2,2.1,0.9,2.6c0,0,0,0,0,0c0,0,0.4,0.8-0.4,1.3c-0.6,0.3-1.4,0.9-1.3,2.5c0.1,1.9,3.8,3.9,4.6,4.3l0.1,0
			c0.2,0.1,4.5,1.7,6.3,2.3c0.3,0.1,0.7,0.2,1.1,0.4c2.5,0.9,7.2,2.6,12.2,3.3c1.5,0.2,3.1,0.5,4.7,0.8c4.7,0.8,9.9,1.8,18.6,1.9
			c6.7,0.1,11-0.1,13.9-0.2c2-0.1,3.3-0.1,3.8,0c0.4,0.1,1,0.3,1.7,0.5c1.6,0.5,3.5,1.2,5,1.2c0.2,0,0.4,0,0.6,0
			c1.8-0.3,2.2-0.7,2.4-1.6c0-0.1,0-0.1,0-0.2c0-0.1,0.1-0.3,0.1-0.4c0.1-0.5,0.1-0.9,0.9-1c0.5-0.1,1.8-0.3,3.2-0.6
			c2.2-0.4,4.6-0.8,5.5-1.1c1.1-0.3,1.9-0.3,2.3,0c0.6,0.4,2.8,1.6,5.5,1.6c1.9,0,2.4-0.7,2.5-1.7c0-0.1,0-0.3,0.1-0.3
			c0.1-0.1,0.2-0.3,0.4-0.4c0.4-0.4,0.8-0.8,0.8-1.7c0-0.8,0.2-1.1,0.4-1.3c0.4-0.4,0.5-1.1,0.3-1.9c0.1-0.3,0.8-1.5,1.9-1.6
			c1.2-0.1,4.3,0.6,8.1,2.6c0.8,0.4,1.7,0.9,2.6,1.3c3.5,1.8,7.9,4.1,12.8,6.2c1,0.3,3.1,0.5,4-1.2c0.8-1.4,0.2-2.7-0.2-3.7
			c-0.2-0.4-0.3-0.7-0.4-1c-0.1-0.5-0.1-0.9-0.1-1.3c0-0.6,0-1.2-0.3-1.9c-0.3-0.8-0.6-1.4-0.4-1.9c0.2-0.7,0.1-1.7,0.1-2.7l0-0.5
			c0-0.2,0-0.3,0-0.4c-0.1-0.8-0.1-1.5,0.3-2.3c0.4-0.7,0.3-1.5,0.3-2.2c0-0.5-0.1-1.1,0.1-1.3c0.1-0.2,0.2-0.3,0.3-0.3
			c0.4-0.4,0.4-0.6,0.6-1.5c0.1-0.4,0.1-0.8,0.1-1.1c0-0.4,0-0.6,0.2-0.9c0.6-0.8,1.1-3.4,0.7-4.3
			C208.2,209.2,208.2,208.8,208.3,208.4z M142,206.5c0.5-0.5,2.5-2,3.1-2.3c0.7-0.3,1.2,0,1.2,0s1.2,0.7,1.6,1
			c0.3,0.3,0.7,1,0.9,1.2c0.2,0.3,2.1,1.1,2.5,1.1c0.4,0,0.9,1.1,1.4,1.5c0.5,0.4,0.9,0.6,1.1,1.1c0.2,0.5-1.3,0.1-1.3,0.1
			s-3.7-1-4-1c-0.3,0-1.6-0.2-2.6-0.4c-1-0.3-1.8-0.3-3.9-0.6C139.9,208,141.5,207,142,206.5z M106.7,213.3
			c1.3-0.5,12.8-2.7,26.4-2.2c13.6,0.5,27.3,4,27.3,4c3.5,1.2,3,1.3-12.4-1.2c-15.4-2.5-37.6-0.5-39.9-0.2
			C105.8,214,105.4,213.7,106.7,213.3z M139.5,217.1c-0.5,0.5-2.1-0.1-2-1c0.1-0.9,1-0.6,1-0.6C139.1,215.5,140.1,216.6,139.5,217.1
			z M128.8,215.7c-1-0.1-0.2-1.1-0.2-1.1c0.7-0.4,1.3-0.3,1.6,0.2C130.5,215.3,129.9,215.8,128.8,215.7z M125,218
			c-1-0.1-1.6-0.5-0.8-1.1c0.7-0.6,1.3-0.2,1.3-0.2C126.7,216.7,126.1,218.1,125,218z M117.5,218c-0.2,0.3-1.3,0.8-1.8,0.1
			c-0.5-0.7,0.1-1.1,0.1-1.1C118,216.5,117.7,217.7,117.5,218z M111.5,220.5c-0.4,0.4-1.3,0.8-1.4,0.1c-0.1-0.7,0.8-1,0.8-1
			C112.1,219.3,112,220.1,111.5,220.5z M153.3,237.9c-0.1,0.3-1.6,0.2-2.3,0c-0.8-0.2-1-0.4-0.8-0.6c0.3-0.2,2.8-0.2,2.8-0.2
			C153.5,237,153.4,237.6,153.3,237.9z M174.2,232.1c-0.5,0.5-0.3,1.7-1.1,1.7c-3.2-0.2-1.8-1.6-1.8-1.6s1.8-1.9,2.3-2.3
			c0.5-0.4,1-0.4,1,0.4C174.8,231.1,174.7,231.7,174.2,232.1z M191.7,224.6c-1,1.6-1.6,3-2.5,3.2c-0.9,0.2-2.4-0.9-4.4-1.8
			c-1.9-0.9-4.9-0.7-7-0.6c-2.2,0.1-6.6,3.5-8.4,5.2c-1.8,1.6-6.4,2.5-6.4,2.5s-11.3,1.9-13.2,2.1c-1.9,0.2-17.9,1.3-23.7,0.9
			c-5.8-0.4-18.1-2-18.1-2s-6-1.1-6.4-1.1c-0.5,0-5.8-1.8-6.9-2.1c-1-0.3-3-1.1-4.5-1.6c-1.5-0.4-4.6-2-5.8-2.7
			c-1.2-0.7-0.8-1.6-0.2-1.7c0.5-0.1,1.7,0.1,2.5,0.1c0.7,0.1,1.3,0.1,2.1,0.8c0.7,0.7,2.1,1.2,3,1.2c1.6-0.1,0.6-1.1,0.3-1.4
			c-0.3-0.3-2-0.7-2-0.7c-1-0.5-1.9-1.2-2.1-1.6c-0.2-0.8-0.9-1.5-1.6-2c-0.7-0.5-2-0.5-2.5-1c-0.5-0.5-0.3-1,0.2-1.3
			c0.5-0.3,1.8-0.6,4.4-1.4c2.9-0.9,6.1-1.4,6.8-1.5c1.9-0.4,2.9-0.3,2.9-0.3c0.5,0,1.6,0.1,2.9,0.3c1.3,0.1,3,1,3,1
			c2.2,1.7,2.9,5.2,2.9,6.5c0,0.4,0.3,1.4,1.3,1.3c1.1-0.2,1.9-0.8,2.6-1.5c0.7-0.7,2.2-0.7,2.2-0.7c0.6,0.4,1.4-0.1,1.5-0.4
			c0.1-0.3,1.3-0.7,1.5-0.9c0.2-0.1,1.3,0,1.6-0.2c0.3-0.2,2.8-0.6,3.4-0.7c0.6-0.1,0.5,0,1.3,0.4c0.7,0.4,1.8-0.2,2.1-0.6
			c0.3-0.4,0.4-0.2,1-0.5c0.7-0.3,0.8,0.3,0.8,0.6c0,0.3,0.4,0.4,1.2,0.4c0.8,0,0.6-0.5,0.6-1.1c0-0.6,0.7-0.4,1.3-0.5
			c0.6-0.1,1.3,0.3,1.4,0.6c0.1,0.3,1.5,0.7,2.2,0.5c0.8-0.2,0.7-0.8,0.7-1.2s0.2-0.2,0.7-0.4c0.5-0.2,4-0.2,4.6-0.2
			c0.6,0,1,0.7,1.3,1c0.2,0.4,1.4,0.8,2.2,0.4c0.7-0.4-0.5-1-0.3-1.4c0.1-0.4,0.8-0.6,0.8-0.1c0,0.5,0.2,0.8,0.8,0.8
			c0.6,0.1,2.1,0.2,2.2-0.6c0.1-0.8,0.4-0.6,1.3-0.8c0.9-0.1,5.5-0.2,6.3-0.2s1-0.2,1,1c0.1,1.2,1.9,0.9,1.9,0.1
			c0-0.8,0.5-0.9,2.6-0.9s7.3,0.2,8.2,0.2c0.9,0-0.2,1,1.1,1.5c1.3,0.5,1.1-0.5,1.3-1c0.2-0.6,1-0.2,1.2,0.1
			c0.2,0.4,1.4,0.8,1.9,0.2c0.5-0.6,0.3-0.1,0.7-0.2c0.4-0.1,3.1,0.2,4.7,0.1c1.6-0.2,2.6-0.3,4.1-0.5c1.5-0.2,0.4,0.1,1.2,0.8
			c0.7,0.7,1.4,0,1.6-0.6c0.1-0.6,0.3-0.5,1.1-0.5c0.8,0,0.9,0.2,0.7,0.8c-0.2,0.6,0.3,1.2,1.1,1.2c0.8,0,0.5-0.8,0.7-1.1
			c0.1-0.3,1.6-0.1,2.5,1.4C192.7,221.8,192.7,222.9,191.7,224.6z M204.7,211.1c-0.8,0.9,0,1.9-0.5,3.1c-0.5,1.3-0.8,1.7-0.9,2.8
			c0,1.1,0,2.5-0.7,3.7c-0.7,1.2-0.9,2.2-0.5,3.3c0.4,1.1-0.6,1.3,0.1,3.2c0.4,1,0,1.2,0.8,2.9c0,0,0.9,2.2,0.3,3.3
			c-0.6,1.1-3.6-0.3-4.6-0.8c-0.8-0.4-4.8-2.7-5.3-3.1c-0.5-0.3-1-0.8-0.3-1.8c0.8-1,1.8-3.5,1.8-5.5s-0.3-2.7-1-4.4
			c-0.7-1.7-2.1-2.4-2.1-3.2c0-0.8,0.8-1.9,3.1-2.8c2.3-0.9,7.7-3.3,8.6-3.3c0,0,1.2-0.1,1.4,0.3
			C205.1,209.1,205.5,210.2,204.7,211.1z"/>
		<path class="st0" d="M100.3,218.8c0,0,1.4,5,0.6,6.7c-0.8,1.7-1.6,3.1-3.6,3.2c-2,0.1-2.7,0.6-1.6,1.1c1,0.5,5.4,0.2,6.5-2.8
			c1.1-3,0.8-4,0.4-5.2C102.2,220.7,101.2,217.1,100.3,218.8z"/>
		<path class="st0" d="M111.4,228c-1.1-0.1-2.7-0.2-3-0.2c-0.3,0-1,0-0.8,0.6c0,0,0.3,0.3,0.5,0.6c0.9,0.1,2.7,0.4,2.7,0.4
			c3.5,0.3,6,1,4.8,1.5c-1.2,0.6-3.2,0.2-3.6,0.1c-0.4-0.1-2.8-0.4-4.1-0.7c-0.1,0.2-0.3,0.2-0.5,0.3c-0.3,0.1-0.6,0.4,0,0.8
			c0.6,0.3,5.2,1,5.8,1.6c0.6,0.5,3.3,0.2,4.9-0.4c1.6-0.6,2.9-1.2,2.2-2.4C119.6,228.9,112.5,228.1,111.4,228z"/>
		<path class="st0" d="M92.9,218c-0.3-0.2-0.9-0.2-1.4-0.1c-0.4,0.1-0.5,0.5-0.3,0.8c0.3,0.4,0.6,0.4,0.5,0.9
			c-0.1,0.4-0.5,0.4-0.8,0.2c-0.3-0.2-0.5-0.3-0.8-0.3c-0.2,0-0.4,0.5-0.1,1c0,0,0.1,0.7,0.9,0.9c0.8,0.3,1.6,0,2-0.3
			c0.4-0.3,0.8-0.7,0.8-1.4C93.9,219,93.3,218.2,92.9,218z"/>
		<path class="st0" d="M130.2,220.5c0,0-1,0.3-0.4,1.2c0.6,0.9,2,1,2.4,0.3C132.5,221.2,131.6,220.2,130.2,220.5z"/>
		<path class="st0" d="M119.6,223.2c0,0-1.6,0.4-2.1,0.9c-0.5,0.5-0.5,2.3,2.2,2.2c2.7-0.1,1.9-1.6,1.8-2.1
			C121.4,223.8,120.7,223.2,119.6,223.2z"/>
		<path class="st0" d="M113.9,226.4c1.5-0.3,1.3-1,1.2-1.5c-0.1-0.5-0.7-1.2-2.3-0.7c0,0-0.7,0.2-0.9,1
			C111.6,226,112.4,226.7,113.9,226.4z"/>
		<path class="st0" d="M140.3,220.6c0,0-0.6-0.2-0.8,0.5c-0.2,0.7,1.4,1.2,1.9,0.7C141.9,221.4,141.6,220.8,140.3,220.6z"/>
		<path class="st0" d="M153.1,218.5c0,0-2.3-0.1-2.5,0.7s1.3,1.3,2.5,0.8C154.5,219.5,154,218.6,153.1,218.5z"/>
		<path class="st0" d="M171.5,219.9c0,0-1.1-0.2-1.2,0.5c-0.1,0.7,0.5,0.9,1.6,0.8C173.1,221.1,171.9,219.7,171.5,219.9z"/>
		<path class="st0" d="M160.3,219c0,0-1.3,0.3-1.3,1c0,0.8,1.4,0.8,2,0.4C161.6,220,161.1,218.9,160.3,219z"/>
		<path class="st0" d="M148.8,219.2c0,0-1.1,0-1.4,0.7c-0.3,0.7,0.6,1.6,1.4,1C149.6,220.2,149.6,219.2,148.8,219.2z"/>
		<path class="st0" d="M156.7,221c0,0-1.5,0.2-1.9,0.6c-0.5,0.4,0.4,1.2,1.8,0.9C157.9,222.2,157.8,221.1,156.7,221z"/>
		<path class="st0" d="M181.1,219.9c0,0-0.6,0-0.3,0.6c0.3,0.6,1.3,0.3,1.3-0.1C182.3,220.1,181.7,219.3,181.1,219.9z"/>
		<path class="st0" d="M185.7,220.1c0,0-0.8-0.3-1.1,0.3c-0.4,0.6-0.5,1.4,0.4,1C185.9,220.9,186.5,220.3,185.7,220.1z"/>
	</g>
</g>
</svg>
